<svg width="383" height="50" viewBox="0 0 383 50" fill="none" xmlns="http://www.w3.org/2000/svg">
<path d="M25.0002 0C15.8104 0 8.3335 7.47686 8.3335 16.6667C8.3335 19.4255 9.02324 22.1608 10.3345 24.587L24.0888 49.4629C24.2719 49.7945 24.6208 50 25.0002 50C25.3796 50 25.7285 49.7945 25.9116 49.4629L39.671 24.5788C40.9771 22.1608 41.6669 19.4254 41.6669 16.6666C41.6669 7.47686 34.19 0 25.0002 0ZM25.0002 25C20.4053 25 16.6669 21.2616 16.6669 16.6667C16.6669 12.0718 20.4053 8.3334 25.0002 8.3334C29.5951 8.3334 33.3335 12.0718 33.3335 16.6667C33.3335 21.2616 29.5951 25 25.0002 25Z" fill="#303841"/>
<line x1="73.5" y1="28.5" x2="304.5" y2="28.5" stroke="#303841" stroke-width="7" stroke-linecap="round" stroke-dasharray="1 20"/>
<path d="M368.407 16.8517L367.872 15.0908C367.192 13.0906 365.02 12.0201 363.02 12.6997C361.894 13.082 361.011 13.9656 360.628 15.0908L360.093 16.8517C359.643 18.3367 359.549 19.9068 359.818 21.435C360.063 22.7217 360.88 23.8271 362.038 24.4392L361.438 37.8333C361.358 38.5809 361.601 39.3273 362.105 39.885C363.19 41.0714 365.031 41.1539 366.217 40.0693C366.282 40.0106 366.343 39.9492 366.402 39.885C366.895 39.3431 367.137 38.6186 367.068 37.8892L366.466 24.4375C367.622 23.8251 368.438 22.7204 368.683 21.435C368.951 19.9068 368.857 18.3367 368.407 16.8517ZM367.041 21.145C366.86 22.0694 366.202 22.8278 365.312 23.1358C364.974 23.2628 364.756 23.5928 364.773 23.9533L365.406 38.0208C365.435 38.2968 365.344 38.5719 365.156 38.7758C364.654 39.2726 363.846 39.2726 363.344 38.7758C363.147 38.5554 363.057 38.2587 363.099 37.9658L363.728 23.9533C363.744 23.5928 363.526 23.2628 363.188 23.1358C362.298 22.8278 361.64 22.0694 361.459 21.145C361.236 19.8762 361.315 18.5728 361.688 17.34L362.223 15.5783C362.637 14.459 363.88 13.8873 365 14.3012C365.591 14.5201 366.058 14.9867 366.277 15.5783L366.812 17.34C367.185 18.5729 367.263 19.8762 367.041 21.145Z" fill="#303841"/>
<path d="M355.5 12.5C355.04 12.5 354.667 12.8731 354.667 13.3333V20.4883L352.411 22.7442C352.244 22.9104 352.156 23.1397 352.167 23.375L352.896 37.9583C352.914 38.2728 352.799 38.5804 352.581 38.8075C352.125 39.2677 351.382 39.271 350.922 38.8148C350.919 38.8124 350.917 38.8099 350.914 38.8075C350.696 38.5804 350.582 38.2728 350.599 37.9583L351.334 23.375C351.345 23.1398 351.257 22.9106 351.09 22.7442L348.834 20.4883V13.3333C348.834 12.8731 348.461 12.5 348 12.5C347.54 12.5 347.167 12.8731 347.167 13.3333V20.8333C347.167 21.0544 347.255 21.2663 347.411 21.4225L349.649 23.6617L348.939 37.8775C348.863 39.4303 350.061 40.7505 351.613 40.8261C353.166 40.9018 354.486 39.7043 354.562 38.1515C354.566 38.0602 354.566 37.9689 354.562 37.8776L353.851 23.6618L356.089 21.4226C356.246 21.2664 356.334 21.0545 356.334 20.8334V13.3334C356.334 12.8731 355.961 12.5 355.5 12.5Z" fill="#303841"/>
<path d="M350.499 12.5C350.039 12.5 349.666 12.8731 349.666 13.3333V20C349.666 20.4602 350.039 20.8333 350.499 20.8333C350.96 20.8333 351.333 20.4602 351.333 20V13.3333C351.333 12.8731 350.96 12.5 350.499 12.5Z" fill="#303841"/>
<path d="M353 12.5C352.54 12.5 352.167 12.8731 352.167 13.3333V20C352.167 20.4602 352.54 20.8333 353 20.8333C353.461 20.8333 353.834 20.4602 353.834 20V13.3333C353.834 12.8731 353.461 12.5 353 12.5Z" fill="#303841"/>
<path d="M358 0C344.193 0 333 11.1929 333 25C333 38.8071 344.193 50 358 50C371.807 50 383 38.8071 383 25C382.984 11.1994 371.801 0.015625 358 0ZM358 48.3333C345.113 48.3333 334.667 37.8867 334.667 25C334.667 12.1133 345.113 1.66667 358 1.66667C370.887 1.66667 381.333 12.1133 381.333 25C381.319 37.8805 370.881 48.3186 358 48.3333Z" fill="#303841"/>
<path d="M360.705 40.6429C360.661 40.1849 360.253 39.8498 359.795 39.8945C359.784 39.8955 359.774 39.8968 359.763 39.8983L359.766 39.8974C358.593 40.0337 357.408 40.0337 356.234 39.8974C355.777 39.8438 355.363 40.171 355.309 40.6282C355.256 41.0855 355.583 41.4996 356.04 41.5532C357.341 41.7052 358.656 41.7052 359.957 41.5532C360.415 41.5087 360.75 41.1011 360.705 40.6429Z" fill="#303841"/>
<path d="M370.751 14.2617C370.455 13.9091 369.929 13.8629 369.577 14.1588C369.575 14.1597 369.574 14.1608 369.573 14.1617C369.221 14.4584 369.176 14.984 369.473 15.3359C374.498 21.3004 374.113 30.1201 368.589 35.625C368.263 35.9499 368.262 36.4777 368.587 36.8038C368.912 37.1298 369.44 37.1308 369.766 36.8059C375.905 30.6899 376.333 20.8897 370.751 14.2617Z" fill="#303841"/>
<path d="M352.416 11.015C352.415 11.015 352.415 11.0149 352.414 11.0149C352.413 11.0149 352.412 11.015 352.411 11.015H352.416Z" fill="#303841"/>
<path d="M361.93 8.79916C358.674 8.01864 355.258 8.22843 352.121 9.40166C351.69 9.56364 351.473 10.0443 351.635 10.475C351.757 10.7997 352.067 11.0146 352.414 11.0149C352.514 11.0144 352.612 10.9961 352.705 10.9608C355.53 9.90447 358.606 9.71582 361.539 10.4192C361.986 10.5273 362.436 10.2524 362.545 9.80499C362.653 9.3576 362.378 8.90728 361.93 8.79916Z" fill="#303841"/>
<path d="M347.374 35.5833C344.565 32.7789 342.99 28.9696 343 25C342.992 21.8285 343.996 18.7373 345.867 16.1767C346.144 15.8088 346.07 15.2864 345.702 15.0098C345.334 14.7332 344.812 14.8073 344.535 15.1752C344.53 15.1818 344.525 15.1883 344.521 15.195C339.703 21.8188 340.412 30.9616 346.193 36.7633C346.519 37.0894 347.048 37.0896 347.374 36.7638C347.7 36.4379 347.7 35.9094 347.374 35.5833Z" fill="#303841"/>
</svg>
