<?xml version="1.0"?>
<svg xmlns="http://www.w3.org/2000/svg" id="Capa_1" enable-background="new 0 0 512 512" height="512px" viewBox="0 0 512 512" width="512px" class=""><g><g><g><g><path d="m421 61h30v75h-30z" fill="#29376d" data-original="#29376D" class="" style="fill:#00ADB5" data-old_color="#29376d"/></g></g><g><path d="m421 196h30v60h-30z" fill="#29376d" data-original="#29376D" class="" style="fill:#00ADB5" data-old_color="#29376d"/></g><g><path d="m421 316h30v120h-30z" fill="#29376d" data-original="#29376D" class="" style="fill:#00ADB5" data-old_color="#29376d"/></g><g><g><path d="m61 61h30v75h-30z" fill="#47568c" data-original="#47568C" class="" style="fill:#00ADB5" data-old_color="#47568c"/></g></g><g><path d="m61 196h30v60h-30z" fill="#47568c" data-original="#47568C" class="" style="fill:#00ADB5" data-old_color="#47568c"/></g><g><g><path d="m61 316h30v120h-30z" fill="#47568c" data-original="#47568C" class="" style="fill:#00ADB5" data-old_color="#47568c"/></g></g><g><path d="m31 421h90v30h-90z" fill="#61729b" data-original="#61729B" class="active-path" style="fill:#00ADB5" data-old_color="#61729b"/></g><g><path d="m391 421h90v30h-90z" fill="#47568c" data-original="#47568C" class="" style="fill:#00ADB5" data-old_color="#47568c"/></g><g><g><g><path d="m457.22 121-33.72 13-8.72-13h-92.56l-31.22 17-11.22-17h-92.56l-33.08 17-9.36-17h-144.78v90h54.78l32.22-15 10.22 15h92.57l32.21-11 10.21 11h92.58l34.71-15 7.71 15h144.79v-90z" fill="#ffde46" data-original="#FFDE46" class="" style="fill:#FF5722" data-old_color="#ffde46"/></g></g><path d="m512 121v90h-144.79l-7.71-15-34.71 15h-68.79v-90h23.78l11.22 17 31.22-17h92.56l8.72 13 33.72-13z" fill="#febf01" data-original="#FEBF01" class="" style="fill:#FF5722" data-old_color="#febf01"/><g><path d="m187.22 121-90 90h-42.44l90-90z" fill="#61729b" data-original="#61729B" class="active-path" style="fill:#00ADB5" data-old_color="#61729b"/></g><g><path d="m457.22 121-90.01 90h-42.42l89.99-90z" fill="#47568c" data-original="#47568C" class="" style="fill:#00ADB5" data-old_color="#47568c"/></g><g><path d="m322.22 121-66.22 66.21-23.79 23.79h-42.42l66.21-66.22 23.78-23.78z" fill="#61729b" data-original="#61729B" class="active-path" style="fill:#00ADB5" data-old_color="#61729b"/></g><path d="m322.22 121-66.22 66.21v-42.43l23.78-23.78z" fill="#47568c" data-original="#47568C" class="" style="fill:#00ADB5" data-old_color="#47568c"/></g><g><g><g><g><g><g><path d="m457.22 241-33.72 13-8.72-13h-92.56l-31.22 17-11.22-17h-92.56l-33.08 17-9.36-17h-144.78v90h54.78l32.22-15 10.22 15h92.57l32.21-11 10.21 11h92.58l34.71-15 7.71 15h144.79v-90z" fill="#ffde46" data-original="#FFDE46" class="" style="fill:#FF5722" data-old_color="#ffde46"/></g></g></g></g></g><path d="m512 241v90h-144.79l-7.71-15-34.71 15h-68.79v-90h23.78l11.22 17 31.22-17h92.56l8.72 13 33.72-13z" fill="#febf01" data-original="#FEBF01" class="" style="fill:#FF5722" data-old_color="#febf01"/><g><path d="m187.22 241-90 90h-42.44l90-90z" fill="#61729b" data-original="#61729B" class="active-path" style="fill:#00ADB5" data-old_color="#61729b"/></g><g><path d="m457.22 241-90.01 90h-42.42l89.99-90z" fill="#47568c" data-original="#47568C" class="" style="fill:#00ADB5" data-old_color="#47568c"/></g><g><path d="m322.22 241-66.22 66.21-23.79 23.79h-42.42l66.21-66.22 23.78-23.78z" fill="#61729b" data-original="#61729B" class="active-path" style="fill:#00ADB5" data-old_color="#61729b"/></g><path d="m322.22 241-66.22 66.21v-42.43l23.78-23.78z" fill="#47568c" data-original="#47568C" class="" style="fill:#00ADB5" data-old_color="#47568c"/></g></g></g> </svg>
