<?xml version="1.0" encoding="utf-8"?>
<!-- Generator: Adobe Illustrator 24.0.1, SVG Export Plug-In . SVG Version: 6.00 Build 0)  -->
<svg version="1.1" id="Capa_1" xmlns="http://www.w3.org/2000/svg" xmlns:xlink="http://www.w3.org/1999/xlink" x="0px" y="0px"
	 viewBox="0 0 488.08 87.92" style="enable-background:new 0 0 488.08 87.92;" xml:space="preserve">
<style type="text/css">
	.st0{opacity:0.63;fill:#00AEB5;stroke:#00AEB5;stroke-miterlimit:10;}
	.st1{fill:#00AEB5;}
	.st2{fill:#303841;}
	.st3{fill:#FFFFFF;}
</style>
<text transform="matrix(1 0 0 1 1127.8429 -270.9946)"><tspan x="0" y="0" class="st2" style="font-family:'Montserrat-Medium'; font-size:109.579px;">Hik</tspan><tspan x="187.05" y="0" class="st1" style="font-family:'Montserrat-Medium'; font-size:109.579px;">eat</tspan></text>
<path class="st0" d="M817.82-538.56l-16.4,22.7l-43.2,59.79c-5.01,6.93-0.06,16.62,8.49,16.62h119.2c8.55,0,13.5-9.69,8.49-16.62
	l-59.6-82.49C830.63-544.35,822.01-544.35,817.82-538.56z"/>
<path class="st1" d="M1027.5-321.56l73.89,17.64c5.3,1.27,9.81-4.01,7.73-9.04l-16.16-39.15l-8.58-20.8
	c-1.74-4.2-7.08-5.48-10.53-2.52l-7.63,6.57l-41.52,35.75C1020.57-329.56,1022.2-322.83,1027.5-321.56z"/>
<g>
	<path class="st2" d="M1112.17-321.73c4.98,25.37-11.55,49.97-36.92,54.95s-49.97-11.55-54.95-36.92"/>
	<path class="st2" d="M1091.19-276.89l-34.52,6.78c-1.38,0.27-2.28,1.61-2.01,2.99l0.34,1.74c0.27,1.38,1.61,2.28,2.99,2.01
		l34.52-6.78c1.38-0.27,2.28-1.61,2.01-2.99l-0.34-1.74C1093.91-276.26,1092.57-277.16,1091.19-276.89z"/>
	<path class="st2" d="M1110.39-322.88l-88.87,17.45c-0.83,0.16-1.37,0.96-1.2,1.79l0.2,1.04c0.16,0.83,0.96,1.37,1.79,1.2
		l88.87-17.45c0.83-0.16,1.37-0.96,1.2-1.79l-0.2-1.04C1112.02-322.5,1111.22-323.04,1110.39-322.88z"/>
</g>
<path class="st3" d="M1068.62-369.47c-2.25,5.51,3.27,6.47,3.27,6.47c0.83,5.68,5.51,8,5.51,8c4.86,2.4,12.42-0.84,12.42-0.84
	l0.22-0.22l-6.87-16.66c-1.39-3.37-5.67-4.39-8.44-2.01L1068.62-369.47z"/>
<g>
	<path class="st1" d="M1009.99-450.75l46.85,11.18c3.36,0.8,6.22-2.54,4.9-5.73l-10.25-24.82l-5.44-13.19
		c-1.1-2.67-4.49-3.48-6.68-1.59l-4.84,4.17l-26.33,22.67C1005.6-455.82,1006.64-451.55,1009.99-450.75z"/>
	<path class="st3" d="M1036.07-481.13c-1.43,3.5,2.07,4.1,2.07,4.1c0.53,3.6,3.49,5.07,3.49,5.07c3.08,1.52,7.88-0.53,7.88-0.53
		l0.14-0.14l-4.36-10.56c-0.88-2.13-3.6-2.78-5.35-1.28L1036.07-481.13z"/>
</g>
<path class="st3" d="M802.75-516.63c0,0,10.9,11.89,21.51,11.51c0,0,10.23-0.38,16.29-9.85c0,0,13.45,3.47,10.7-13.99l-4.64-25.8
	l-36.76-5.68l-15.54,21.62L802.75-516.63z"/>
<g>
	<g>
		<path class="st2" d="M206.01,8.35v76.7h-10.96V50.86H151v34.19h-10.96V8.35H151v32.98h44.05V8.35H206.01z"/>
		<path class="st2" d="M225.63,9.01c0-3.83,3.07-6.9,7.12-6.9c4.05,0,7.12,2.96,7.12,6.68c0,3.95-2.96,7.01-7.12,7.01
			C228.7,15.8,225.63,12.84,225.63,9.01z M227.49,26.98h10.52v58.07h-10.52V26.98z"/>
		<path class="st2" d="M280.63,57.99l-12.05,11.18v15.89h-10.52V3.75h10.52v52.16l31.67-28.93h12.71l-24.44,24l26.85,34.08h-12.93
			L280.63,57.99z"/>
		<path class="st1" d="M375.42,59.52H328.3c1.31,10.19,9.53,16.98,21.04,16.98c6.79,0,12.49-2.3,16.76-7.01l5.81,6.79
			c-5.26,6.14-13.26,9.42-22.9,9.42c-18.74,0-31.23-12.38-31.23-29.69c0-17.2,12.38-29.58,29.15-29.58s28.71,12.05,28.71,29.91
			C375.64,57.22,375.53,58.54,375.42,59.52z M328.3,51.96h37.25c-1.1-9.75-8.44-16.65-18.63-16.65
			C336.85,35.31,329.4,42.1,328.3,51.96z"/>
		<path class="st1" d="M434.59,49.99v35.06h-9.97v-7.67c-3.51,5.26-9.97,8.33-19.07,8.33c-13.15,0-21.48-7.01-21.48-17.09
			c0-9.31,6.03-16.98,23.34-16.98h16.66v-2.08c0-8.88-5.15-14.03-15.56-14.03c-6.9,0-13.92,2.41-18.41,6.25l-4.38-7.89
			c6.03-4.82,14.68-7.45,24-7.45C425.61,26.43,434.59,34.1,434.59,49.99z M424.07,67.3v-8.11h-16.22c-10.41,0-13.37,4.05-13.37,8.98
			c0,5.81,4.82,9.42,12.82,9.42C415.2,77.6,421.44,73.98,424.07,67.3z"/>
		<path class="st1" d="M486.75,81.65c-3.18,2.74-8,4.05-12.71,4.05c-11.72,0-18.41-6.46-18.41-18.19V35.63h-9.86v-8.66h9.86V14.27
			h10.52v12.71h16.66v8.66h-16.66v31.45c0,6.25,3.29,9.75,9.09,9.75c3.07,0,6.03-0.99,8.22-2.74L486.75,81.65z"/>
	</g>
	<g>
		<path class="st1" d="M48.37,26.82c0,0-0.37,0.02-0.93-0.04c-0.01,0.03-0.02,0.05-0.03,0.07l-7.67,14.19
			c-0.47,0.87,1,1.83,1.61,1.05l9.13-11.73C49.67,29.4,48.93,28.23,48.37,26.82z M56.83,34.48c0,0-1.83-0.42-3.88-1.86l-6.8,12.6
			c-0.48,0.87,1,1.84,1.61,1.05l9.17-11.77C56.9,34.5,56.86,34.49,56.83,34.48z M56.83,34.48c0,0-1.83-0.42-3.88-1.86l-6.8,12.6
			c-0.48,0.87,1,1.84,1.61,1.05l9.17-11.77C56.9,34.5,56.86,34.49,56.83,34.48z M48.37,26.82c0,0-0.37,0.02-0.93-0.04
			c-0.01,0.03-0.02,0.05-0.03,0.07l-7.67,14.19c-0.47,0.87,1,1.83,1.61,1.05l9.13-11.73C49.67,29.4,48.93,28.23,48.37,26.82z"/>
		<g>
			<path class="st1" d="M122.91,69.9l-17.77-24.24L95.7,32.78c-1.91-2.61-5.81-2.58-7.69,0.05l-4.14,5.82l-2.04,2.87l-6.53-8.91
				L59.68,11.29c-3.16-4.3-9.61-4.26-12.71,0.09l-6.86,9.63L2.8,73.42c-3.71,5.21,0.04,12.43,6.44,12.39l0.77-0.01
				c-0.02-0.04-0.02-0.07-0.03-0.11c-0.34-1.97,0.16-4.01,1.37-5.6l20.08-26.43c-2.98-4.52-2.6-10.48,1.05-14.57l11.95-13.43
				c-1.15-0.91-1.99-2.51-1.55-5.34l5.56-7.67c2.52-3.46,7.68-3.45,10.19,0.02l12.35,17.18l-0.18,0.31c0,0-5.15,3.81-10.41,4.46
				c-0.01,0.17-0.05,0.34-0.13,0.5l-7.79,17.02c-2.28,4.99-7.59,7.73-12.92,6.83L24.69,85.7l73.74-0.51c4.54-0.03,7.7-3.7,7.8-7.66
				l12.88-0.09C122.98,77.41,125.19,73.01,122.91,69.9z M85.54,38.23l3.36-4.63c1.52-2.09,4.65-2.09,6.16,0.01l7.47,10.38
				l-0.12,0.19c0,0-4.69,3.47-8.44,2.61c0,0-3.61-0.84-5.11-4.63C88.86,42.16,84.89,42.4,85.54,38.23z"/>
		</g>
	</g>
</g>
<text transform="matrix(1 0 0 1 1025.3138 -69.8369)"><tspan x="0" y="0" class="st2" style="font-family:'Montserrat-Medium'; font-size:109.579px;">Hik</tspan><tspan x="187.05" y="0" class="st1" style="font-family:'Montserrat-Medium'; font-size:109.579px;">eat</tspan></text>
<g>
	<path class="st1" d="M945.14-128.07c0,0-0.37,0.02-0.93-0.04c-0.01,0.03-0.02,0.05-0.03,0.07l-7.67,14.19
		c-0.47,0.87,1,1.83,1.61,1.05l9.13-11.73C946.44-125.49,945.7-126.66,945.14-128.07z M953.6-120.41c0,0-1.83-0.42-3.88-1.86
		l-6.8,12.6c-0.48,0.87,1,1.84,1.61,1.05l9.17-11.77C953.67-120.39,953.63-120.4,953.6-120.41z M953.6-120.41
		c0,0-1.83-0.42-3.88-1.86l-6.8,12.6c-0.48,0.87,1,1.84,1.61,1.05l9.17-11.77C953.67-120.39,953.63-120.4,953.6-120.41z
		 M945.14-128.07c0,0-0.37,0.02-0.93-0.04c-0.01,0.03-0.02,0.05-0.03,0.07l-7.67,14.19c-0.47,0.87,1,1.83,1.61,1.05l9.13-11.73
		C946.44-125.49,945.7-126.66,945.14-128.07z"/>
	<g>
		<path class="st1" d="M1019.68-84.99l-17.77-24.24l-9.44-12.88c-1.91-2.61-5.81-2.58-7.69,0.05l-4.14,5.82l-2.04,2.87l-6.53-8.91
			l-15.62-21.32c-3.16-4.3-9.61-4.26-12.71,0.09l-6.86,9.63l-37.31,52.41c-3.71,5.21,0.04,12.43,6.44,12.39l0.77-0.01
			c-0.02-0.04-0.02-0.07-0.03-0.11c-0.34-1.97,0.16-4.01,1.37-5.6l20.08-26.43c-2.98-4.52-2.6-10.48,1.05-14.57l11.95-13.43
			c-1.15-0.91-1.99-2.51-1.55-5.34l5.56-7.67c2.52-3.46,7.68-3.45,10.19,0.02l12.35,17.18l-0.18,0.31c0,0-5.15,3.81-10.41,4.46
			c-0.01,0.17-0.05,0.34-0.13,0.5l-7.79,17.02c-2.28,4.99-7.59,7.73-12.92,6.83l-14.86,26.73l73.74-0.51c4.54-0.03,7.7-3.7,7.8-7.66
			l12.88-0.09C1019.75-77.48,1021.96-81.88,1019.68-84.99z M982.31-116.66l3.36-4.63c1.52-2.09,4.65-2.09,6.16,0.01l7.47,10.38
			l-0.12,0.19c0,0-4.69,3.47-8.44,2.61c0,0-3.61-0.84-5.11-4.63C985.63-112.73,981.66-112.49,982.31-116.66z"/>
	</g>
</g>
<path class="st1" d="M1180.3-435.47l89.2-0.62c6.4-0.04,10.06-7.32,6.28-12.48l-29.41-40.11l-15.62-21.31
	c-3.16-4.3-9.61-4.26-12.72,0.09l-6.85,9.63l-37.32,52.41C1170.15-442.65,1173.91-435.43,1180.3-435.47z"/>
<path class="st3" d="M1213.95-500.97c-1.08,6.91,5.48,6.51,5.48,6.51c2.49,6.26,8.46,7.65,8.46,7.65c6.2,1.43,13.97-4.32,13.97-4.32
	l0.19-0.31l-12.36-17.18c-2.5-3.47-7.67-3.48-10.18-0.02L1213.95-500.97z"/>
<g>
	<path class="st1" d="M1236.27-443.47l53.9-0.37c3.87-0.03,6.08-4.42,3.79-7.54l-17.77-24.24l-9.44-12.88
		c-1.91-2.6-5.81-2.58-7.68,0.05l-4.14,5.82l-22.55,31.67C1230.14-447.81,1232.41-443.45,1236.27-443.47z"/>
	<path class="st3" d="M1256.61-483.05c-0.65,4.17,3.31,3.93,3.31,3.93c1.5,3.78,5.11,4.63,5.11,4.63c3.75,0.87,8.44-2.61,8.44-2.61
		l0.11-0.18l-7.47-10.38c-1.51-2.1-4.64-2.1-6.15-0.01L1256.61-483.05z"/>
</g>
<g>
	<g>
		<path class="st3" d="M1223.53-469.14l7.8-17.02c0.32-0.69,0.08-1.5-0.55-1.92c-0.01-0.01-0.03-0.02-0.04-0.03
			c-0.66-0.4-1.52-0.25-2,0.37l-9.91,12.73c-0.61,0.78-2.08-0.18-1.61-1.05l7.67-14.19c0.38-0.7,0.16-1.57-0.51-2.01
			c-0.67-0.44-1.55-0.29-2.04,0.34l-9.91,12.73c-0.61,0.78-2.08-0.18-1.61-1.05l7.67-14.19c0.37-0.68,0.17-1.53-0.47-1.98
			c-0.02-0.01-0.03-0.02-0.04-0.03c-0.63-0.41-1.47-0.31-1.98,0.26l-12.45,13.98c-3.65,4.1-4.02,10.05-1.05,14.58l-20.08,26.43
			c-1.21,1.59-1.71,3.63-1.36,5.6c0.34,1.97,1.49,3.72,3.17,4.82l0.01,0.01c1.67,1.09,3.75,1.44,5.69,0.96
			c1.94-0.48,3.61-1.76,4.58-3.5l16.12-29.01C1215.95-461.42,1221.25-464.15,1223.53-469.14z"/>
	</g>
</g>
</svg>
