<?xml version="1.0"?>
<svg xmlns="http://www.w3.org/2000/svg" xmlns:xlink="http://www.w3.org/1999/xlink" version="1.1" id="Capa_1" x="0px" y="0px" viewBox="0 0 511.999 511.999" style="enable-background:new 0 0 511.999 511.999;" xml:space="preserve" width="512px" height="512px"><g><g>
	<g>
		<path d="M256,0C153.58,0,70.256,83.324,70.256,185.743c0,41.017,9.395,83.407,27.924,125.994    c14.652,33.678,35.029,67.564,60.563,100.717c43.295,56.214,86.096,90.634,87.896,92.072l9.359,7.472l9.359-7.472    c1.8-1.438,44.601-35.858,87.896-92.072c25.533-33.153,45.91-67.039,60.563-100.717c18.529-42.587,27.924-84.978,27.924-125.994    C441.742,83.324,358.419,0,256,0z M265.885,157.724v15.001c0,25.553-17.282,47.132-40.767,53.702v111.068h-30.002V226.425    c-23.484-6.569-40.766-28.148-40.766-53.702v-15.001v-43.266h30.002v43.266h10.765v-43.266h30.002v43.266h10.766v-43.266h30.001    V157.724z M357.648,215.411c0,25.175-16.982,46.445-40.088,52.996v69.087h-30.002V270.5v-27.011V114.47h15.001    c30.375,0,55.089,24.713,55.089,55.089V215.411z" data-original="#000000" class="active-path" data-old_color="#000000" fill="#00ADB5"/>
	</g>
</g></g> </svg>
