<?xml version="1.0"?>
<svg xmlns="http://www.w3.org/2000/svg" xmlns:xlink="http://www.w3.org/1999/xlink" version="1.1" id="Capa_1" x="0px" y="0px" viewBox="0 0 512 512" style="enable-background:new 0 0 512 512;" xml:space="preserve" width="512px" height="512px" class=""><g><path style="fill:#00ADB5" d="M256,0l-20.016,226.239L256,512c0,0,182.963-146.075,182.963-329.037C438.963,81.915,357.047,0,256,0  z" data-original="#E7001E" class="active-path" data-old_color="#E7001E"/><path style="fill:#00ADB5" d="M73.037,182.963C73.037,365.925,256,512,256,512V159.403L245.992,126.5L256,97.51V0  C154.953,0,73.037,81.915,73.037,182.963z" data-original="#FF4F19" class="" data-old_color="#FF4F19"/><path style="fill:#FFFFFF" d="M295.45,97.983h-15v235.97h30v-74.092c24.499-6.618,42.583-29.026,42.583-55.589v-48.706  C353.033,123.815,327.201,97.983,295.45,97.983z" data-original="#FFD200" class="" data-old_color="#FFD200"/><path style="fill:#FFFFFF" d="M226,97.51v46.894h-13.303V97.51h-30v46.894h-13.304V97.51h-30v61.894  c0,26.963,18.402,49.701,43.304,56.337v118.686h30V215.74C237.599,209.104,256,186.366,256,159.403V97.51H226z" data-original="#FFF9BF" class="" data-old_color="#FFF9BF"/></g> </svg>
