<?xml version="1.0"?>
<svg xmlns="http://www.w3.org/2000/svg" id="broccoli" enable-background="new 0 0 300 300" height="512px" viewBox="0 0 300 300" width="512px"><g><g><path d="m223.603 230c2.209 0 4-1.791 4-4v-8c0-2.209-1.791-4-4-4s-4 1.791-4 4v8c0 2.209 1.791 4 4 4z" data-original="#000000" class="active-path" data-old_color="#000000" fill="#FFFFFF"/><path d="m223.603 238c-2.209 0-4 1.791-4 4v8c0 2.209 1.791 4 4 4s4-1.791 4-4v-8c0-2.209-1.791-4-4-4z" data-original="#000000" class="active-path" data-old_color="#000000" fill="#FFFFFF"/><path d="m215.603 230h-8c-2.209 0-4 1.791-4 4s1.791 4 4 4h8c2.209 0 4-1.791 4-4s-1.791-4-4-4z" data-original="#000000" class="active-path" data-old_color="#000000" fill="#FFFFFF"/><path d="m239.603 230h-8c-2.209 0-4 1.791-4 4s1.791 4 4 4h8c2.209 0 4-1.791 4-4s-1.791-4-4-4z" data-original="#000000" class="active-path" data-old_color="#000000" fill="#FFFFFF"/><path d="m73.603 62c7.719 0 14-6.281 14-14s-6.281-14-14-14-14 6.281-14 14 6.281 14 14 14zm0-20c3.309 0 6 2.691 6 6s-2.691 6-6 6-6-2.691-6-6 2.691-6 6-6z" data-original="#000000" class="active-path" data-old_color="#000000" fill="#FFFFFF"/><path d="m40.121 77.504c2.362 0 4.276-1.915 4.276-4.277s-1.915-4.276-4.276-4.276-4.277 1.915-4.277 4.276 1.915 4.277 4.277 4.277z" data-original="#000000" class="active-path" data-old_color="#000000" fill="#FFFFFF"/><path d="m264.121 200.951c-2.362 0-4.277 1.915-4.277 4.276s1.915 4.277 4.277 4.277 4.276-1.915 4.276-4.277-1.915-4.276-4.276-4.276z" data-original="#000000" class="active-path" data-old_color="#000000" fill="#FFFFFF"/><path d="m253.14 136.912c2.646-3.916 4.078-8.5 4.078-13.195 0-13.113-10.67-23.783-23.783-23.783-4.887 0-9.531 1.471-13.465 4.213-6.139-8.23-15.762-13.18-26.102-13.18-1.141 0-2.281.141-3.421.26-2.708-10.156-11.96-17.672-22.958-17.672-4.887 0-9.531 1.471-13.465 4.211-6.137-8.227-15.762-13.176-26.102-13.176-16.159 0-29.588 11.777-32.24 27.19-5.739-4.707-12.912-7.407-20.514-7.407-18.057 0-32.748 14.691-32.748 32.748 0 1.959.209 3.926.65 6.029-7.064 4.266-11.469 11.926-11.469 20.35 0 12.629 9.895 22.99 22.34 23.74 3.975 8.02 12.172 13.23 21.227 13.23 7.395 0 14.196-3.397 18.632-9.002l7.176 11.168c6.951 10.818 10.625 23.334 10.625 36.195v43.169c0 2.209 1.791 4 4 4h52c1.062 0 2.08-.422 2.83-1.174.752-.752 1.172-1.771 1.17-2.832l-.072-42.451c-.022-12.744 3.579-25.057 10.355-35.798 3.562 2.108 7.667 3.322 11.983 3.322 8.424 0 16.084-4.406 20.348-11.469 4.031.85 7.541.873 11.648.107 4.117 3.086 9.074 4.766 14.164 4.766 13.113 0 23.783-10.67 23.783-23.783.002-8.088-4.016-15.407-10.67-19.776zm-125.217-64.322c9.023 0 17.336 5.02 21.691 13.102.609 1.131 1.727 1.9 3 2.066 1.279.178 2.551-.285 3.432-1.221 3.031-3.213 7.096-4.982 11.443-4.982 8.703 0 15.783 7.08 15.783 15.783 0 3.809-1.441 7.523-4.061 10.459-.869.973-1.209 2.311-.908 3.582.137.582.236 1.174.332 1.771.207 1.297 1.037 2.408 2.221 2.975 5.559 2.662 9.012 8.098 9.012 14.186 0 8.703-7.08 15.783-15.783 15.783-3.809 0-7.523-1.443-10.457-4.062-.975-.871-2.312-1.211-3.592-.906-4.664 1.107-7.93 1.021-12.732-.402-1.949-.578-4.033.406-4.824 2.287-2.471 5.879-8.186 9.678-14.557 9.678-6.656 0-12.617-4.27-14.83-10.623-.562-1.613-2.084-2.684-3.775-2.684-.08 0-.158.002-.238.008-.279.016-.553.051-.938.111-8.703 0-15.783-7.08-15.783-15.783 0-6.371 3.799-12.086 9.678-14.557 1.883-.791 2.867-2.871 2.285-4.826-.781-2.633-1.146-4.855-1.146-6.996-.001-13.648 11.101-24.749 24.747-24.749zm27.881 92.667c1.625 1.956 3.553 3.648 5.718 5.002l-5.821 7.231zm-66.08-2.464c-2.469 5.879-8.182 9.678-14.555 9.678-6.656 0-12.617-4.27-14.832-10.623-.59-1.689-2.285-2.789-4.014-2.676-.279.016-.551.049-.938.111-8.703 0-15.783-7.08-15.783-15.783 0-6.371 3.799-12.086 9.68-14.557 1.879-.791 2.863-2.869 2.285-4.824-.783-2.637-1.146-4.859-1.146-6.998 0-13.646 11.102-24.748 24.748-24.748 8.24 0 15.863 4.157 20.479 11.118-6.952 4.287-11.289 11.876-11.289 20.226 0 12.629 9.895 22.99 22.338 23.74 3.975 8.02 12.17 13.23 21.227 13.23 1.955 0 3.862-.261 5.702-.714-2.919 3.613-7.387 5.903-12.295 5.903-3.811 0-7.523-1.441-10.455-4.061-.975-.871-2.309-1.219-3.592-.908-4.666 1.109-7.936 1.023-12.734-.402-1.957-.575-4.037.407-4.826 2.288zm37.879 10.136v3.755l-2.313-3.173c.793-.136 1.547-.369 2.313-.582zm35.928 46.628.066 38.443h-43.994v-39.168c0-14.398-4.113-28.41-11.895-40.52l-5.584-8.69c1.631-.035 3.277-.187 5.041-.513 2.362 1.772 5.016 3.019 7.799 3.812.005.007.005.015.01.022l8.199 11.242c1.322 1.812 3.393 2.826 5.545 2.826.713 0 1.436-.111 2.141-.342 2.838-.926 4.744-3.553 4.744-6.537v-11.155c4.832-3.656 8.292-9.059 9.231-15.38 1.159-1.176 2.197-2.478 3.101-3.893l-.261 30.949c-.025 2.971 1.766 5.535 4.562 6.533.779.279 1.574.414 2.355.414 2.027 0 3.971-.906 5.312-2.576l9.387-11.662c1.094.225 2.206.402 3.349.47.843 1.7 1.91 3.24 3.1 4.665-7.993 12.252-12.235 26.404-12.208 41.06zm76.498-47.086c-3.809 0-7.523-1.441-10.459-4.061-.977-.873-2.316-1.215-3.59-.906-4.66 1.109-7.932 1.021-12.73-.402-1.959-.59-4.037.404-4.826 2.285-2.471 5.881-8.184 9.68-14.555 9.68-6.656 0-12.617-4.27-14.832-10.625-.588-1.689-2.25-2.814-4.014-2.676-.279.016-.553.051-.938.111-8.703 0-15.783-7.08-15.783-15.783 0-.183.021-.361.028-.542.528-.073 1.043-.124 1.59-.225 4.117 3.088 9.076 4.768 14.166 4.768 13.113 0 23.783-10.67 23.783-23.783 0-8.088-4.018-15.404-10.674-19.775 2.299-3.4 3.615-7.312 3.938-11.355 9.844-1.059 19.631 3.993 24.425 12.89.609 1.131 1.725 1.898 2.998 2.066 1.295.176 2.553-.285 3.432-1.219 3.033-3.215 7.1-4.984 11.447-4.984 8.703 0 15.783 7.08 15.783 15.783 0 3.809-1.443 7.521-4.062 10.455-.873.977-1.211 2.32-.906 3.594.141.584.236 1.174.334 1.771.209 1.293 1.039 2.4 2.219 2.965 5.559 2.662 9.01 8.098 9.01 14.186-.001 8.702-7.081 15.782-15.784 15.782z" data-original="#000000" class="active-path" data-old_color="#000000" fill="#FFFFFF"/><path d="m115.603 98c2.209 0 4-1.791 4-4 0-4.412 3.588-8 8-8 2.209 0 4-1.791 4-4s-1.791-4-4-4c-8.822 0-16 7.178-16 16 0 2.209 1.791 4 4 4z" data-original="#000000" class="active-path" data-old_color="#000000" fill="#FFFFFF"/><path d="m207.603 130c-2.209 0-4 1.791-4 4 0 3.646-1.195 7.082-3.455 9.934-1.373 1.73-1.082 4.246.65 5.619.734.582 1.611.865 2.482.865 1.178 0 2.348-.52 3.137-1.516 3.344-4.217 5.186-9.51 5.186-14.902 0-2.209-1.791-4-4-4z" data-original="#000000" class="active-path" data-old_color="#000000" fill="#FFFFFF"/><path d="m79.603 126c0-2.209-1.791-4-4-4s-4 1.791-4 4c0 9.887 4.465 19.062 12.248 25.178.732.576 1.604.855 2.469.855 1.186 0 2.357-.523 3.146-1.529 1.365-1.736 1.064-4.252-.674-5.615-5.839-4.59-9.189-11.475-9.189-18.889z" data-original="#000000" class="active-path" data-old_color="#000000" fill="#FFFFFF"/></g></g> </svg>
